<svg width="32" height="32" viewBox="0 0 32 32" fill="none" xmlns="http://www.w3.org/2000/svg">
<path d="M16 32C24.8366 32 32 24.8366 32 16C32 7.16344 24.8366 0 16 0C7.16344 0 0 7.16344 0 16C0 24.8366 7.16344 32 16 32Z" fill="url(#paint0_linear_1_357)"/>
<path d="M8.81604 20V11.6H14.24V12.836H10.352V15.188H13.496V16.4H10.352V20H8.81604ZM15.425 20V11.6H18.797C19.669 11.6 20.333 11.804 20.789 12.212C21.253 12.612 21.485 13.128 21.485 13.76C21.485 14.288 21.341 14.712 21.053 15.032C20.773 15.344 20.429 15.556 20.021 15.668C20.501 15.764 20.897 16.004 21.209 16.388C21.521 16.764 21.677 17.204 21.677 17.708C21.677 18.372 21.437 18.92 20.957 19.352C20.477 19.784 19.797 20 18.917 20H15.425ZM16.961 15.128H18.569C19.001 15.128 19.333 15.028 19.565 14.828C19.797 14.628 19.913 14.344 19.913 13.976C19.913 13.624 19.797 13.348 19.565 13.148C19.341 12.94 19.001 12.836 18.545 12.836H16.961V15.128ZM16.961 18.752H18.677C19.133 18.752 19.485 18.648 19.733 18.44C19.989 18.224 20.117 17.924 20.117 17.54C20.117 17.148 19.985 16.84 19.721 16.616C19.457 16.392 19.101 16.28 18.653 16.28H16.961V18.752Z" fill="white"/>
<defs>
<linearGradient id="paint0_linear_1_357" x1="1.92997e-07" y1="-0.148" x2="19.497" y2="38.207" gradientUnits="userSpaceOnUse">
<stop stop-color="#09C6F9"/>
<stop offset="1" stop-color="#045DE9"/>
</linearGradient>
</defs>
</svg>
