<svg width="48" height="48" viewBox="0 0 48 48" fill="none" xmlns="http://www.w3.org/2000/svg">
<path d="M22.085 0V14.406H1.37799C3.56499 7.66801 9.11598 2.50303 16.079 0.866028C18.059 0.400028 20.068 0.112 22.085 0Z" fill="#FCA311"/>
<path d="M22.085 0V14.406H1.37799C3.56499 7.66801 9.11598 2.50303 16.079 0.866028C18.059 0.400028 20.068 0.112 22.085 0Z" fill="url(#paint0_linear_1_363)"/>
<path d="M25.915 0V29.756H47.521C48.282 25.215 48.136 20.56 47.083 16.062C45.319 8.52201 39.444 2.63403 31.921 0.866028C29.942 0.400028 27.932 0.112 25.915 0Z" fill="#FCA311"/>
<path d="M25.915 0V29.756H47.521C48.282 25.215 48.136 20.56 47.083 16.062C45.319 8.52201 39.444 2.63403 31.921 0.866028C29.942 0.400028 27.932 0.112 25.915 0Z" fill="url(#paint1_linear_1_363)"/>
<path d="M46.622 33.594H25.915V48C27.932 47.888 29.942 47.6 31.921 47.134C38.884 45.497 44.435 40.332 46.622 33.594Z" fill="#FCA311"/>
<path d="M46.622 33.594H25.915V48C27.932 47.888 29.942 47.6 31.921 47.134C38.884 45.497 44.435 40.332 46.622 33.594Z" fill="url(#paint2_linear_1_363)"/>
<path d="M22.085 48V18.244H0.479003C-0.281997 22.785 -0.136009 27.44 0.916991 31.938C2.68099 39.478 8.55598 45.366 16.079 47.134C18.059 47.6 20.068 47.888 22.085 48Z" fill="#FCA311"/>
<path d="M22.085 48V18.244H0.479003C-0.281997 22.785 -0.136009 27.44 0.916991 31.938C2.68099 39.478 8.55598 45.366 16.079 47.134C18.059 47.6 20.068 47.888 22.085 48Z" fill="url(#paint3_linear_1_363)"/>
<defs>
<linearGradient id="paint0_linear_1_363" x1="-1.11289e-05" y1="-0.222" x2="29.245" y2="57.311" gradientUnits="userSpaceOnUse">
<stop stop-color="#09C6F9"/>
<stop offset="1" stop-color="#045DE9"/>
</linearGradient>
<linearGradient id="paint1_linear_1_363" x1="-4.84376e-05" y1="-0.221999" x2="29.2449" y2="57.311" gradientUnits="userSpaceOnUse">
<stop stop-color="#09C6F9"/>
<stop offset="1" stop-color="#045DE9"/>
</linearGradient>
<linearGradient id="paint2_linear_1_363" x1="-6.21255e-05" y1="-0.222021" x2="29.2449" y2="57.311" gradientUnits="userSpaceOnUse">
<stop stop-color="#09C6F9"/>
<stop offset="1" stop-color="#045DE9"/>
</linearGradient>
<linearGradient id="paint3_linear_1_363" x1="-2.63213e-06" y1="-0.221969" x2="29.245" y2="57.311" gradientUnits="userSpaceOnUse">
<stop stop-color="#09C6F9"/>
<stop offset="1" stop-color="#045DE9"/>
</linearGradient>
</defs>
</svg>
