<svg width="48" height="48" viewBox="0 0 48 48" fill="none" xmlns="http://www.w3.org/2000/svg">
<path d="M13.843 0.416006C11.479 -0.138994 9.01902 -0.138994 6.65502 0.416006C3.55902 1.14201 1.14201 3.55902 0.416006 6.65502C-0.138994 9.01902 -0.138994 11.479 0.416006 13.843C1.14201 16.939 3.55902 19.357 6.65502 20.083C9.01902 20.637 11.479 20.637 13.843 20.083C16.939 19.357 19.357 16.939 20.083 13.843C20.637 11.479 20.637 9.01902 20.083 6.65502C19.357 3.55902 16.939 1.14201 13.843 0.416006Z" fill="#FCA311"/>
<path d="M13.843 0.416006C11.479 -0.138994 9.01902 -0.138994 6.65502 0.416006C3.55902 1.14201 1.14201 3.55902 0.416006 6.65502C-0.138994 9.01902 -0.138994 11.479 0.416006 13.843C1.14201 16.939 3.55902 19.357 6.65502 20.083C9.01902 20.637 11.479 20.637 13.843 20.083C16.939 19.357 19.357 16.939 20.083 13.843C20.637 11.479 20.637 9.01902 20.083 6.65502C19.357 3.55902 16.939 1.14201 13.843 0.416006Z" fill="url(#paint0_linear_1_362)"/>
<path d="M13.843 27.917C11.479 27.363 9.01902 27.363 6.65502 27.917C3.55902 28.643 1.14201 31.061 0.416006 34.157C-0.138994 36.521 -0.138994 38.9809 0.416006 41.3449C1.14201 44.4409 3.55902 46.858 6.65502 47.584C9.01902 48.139 11.479 48.139 13.843 47.584C16.939 46.858 19.357 44.4409 20.083 41.3449C20.637 38.9809 20.637 36.521 20.083 34.157C19.357 31.061 16.939 28.643 13.843 27.917Z" fill="#FCA311"/>
<path d="M13.843 27.917C11.479 27.363 9.01902 27.363 6.65502 27.917C3.55902 28.643 1.14201 31.061 0.416006 34.157C-0.138994 36.521 -0.138994 38.9809 0.416006 41.3449C1.14201 44.4409 3.55902 46.858 6.65502 47.584C9.01902 48.139 11.479 48.139 13.843 47.584C16.939 46.858 19.357 44.4409 20.083 41.3449C20.637 38.9809 20.637 36.521 20.083 34.157C19.357 31.061 16.939 28.643 13.843 27.917Z" fill="url(#paint1_linear_1_362)"/>
<path d="M41.3449 0.416006C38.9809 -0.138994 36.521 -0.138994 34.157 0.416006C31.061 1.14201 28.643 3.55902 27.917 6.65502C27.363 9.01902 27.363 11.479 27.917 13.843C28.643 16.939 31.061 19.357 34.157 20.083C36.521 20.637 38.9809 20.637 41.3449 20.083C44.4409 19.357 46.858 16.939 47.584 13.843C48.139 11.479 48.139 9.01902 47.584 6.65502C46.858 3.55902 44.4409 1.14201 41.3449 0.416006Z" fill="#FCA311"/>
<path d="M41.3449 0.416006C38.9809 -0.138994 36.521 -0.138994 34.157 0.416006C31.061 1.14201 28.643 3.55902 27.917 6.65502C27.363 9.01902 27.363 11.479 27.917 13.843C28.643 16.939 31.061 19.357 34.157 20.083C36.521 20.637 38.9809 20.637 41.3449 20.083C44.4409 19.357 46.858 16.939 47.584 13.843C48.139 11.479 48.139 9.01902 47.584 6.65502C46.858 3.55902 44.4409 1.14201 41.3449 0.416006Z" fill="url(#paint2_linear_1_362)"/>
<path d="M41.3449 27.917C38.9809 27.363 36.521 27.363 34.157 27.917C31.061 28.643 28.643 31.061 27.917 34.157C27.363 36.521 27.363 38.9809 27.917 41.3449C28.643 44.4409 31.061 46.858 34.157 47.584C36.521 48.139 38.9809 48.139 41.3449 47.584C44.4409 46.858 46.858 44.4409 47.584 41.3449C48.139 38.9809 48.139 36.521 47.584 34.157C46.858 31.061 44.4409 28.643 41.3449 27.917Z" fill="#FCA311"/>
<path d="M41.3449 27.917C38.9809 27.363 36.521 27.363 34.157 27.917C31.061 28.643 28.643 31.061 27.917 34.157C27.363 36.521 27.363 38.9809 27.917 41.3449C28.643 44.4409 31.061 46.858 34.157 47.584C36.521 48.139 38.9809 48.139 41.3449 47.584C44.4409 46.858 46.858 44.4409 47.584 41.3449C48.139 38.9809 48.139 36.521 47.584 34.157C46.858 31.061 44.4409 28.643 41.3449 27.917Z" fill="url(#paint3_linear_1_362)"/>
<defs>
<linearGradient id="paint0_linear_1_362" x1="6.62641e-06" y1="-0.221994" x2="29.245" y2="57.311" gradientUnits="userSpaceOnUse">
<stop stop-color="#09C6F9"/>
<stop offset="1" stop-color="#045DE9"/>
</linearGradient>
<linearGradient id="paint1_linear_1_362" x1="6.38574e-06" y1="-0.222025" x2="29.245" y2="57.311" gradientUnits="userSpaceOnUse">
<stop stop-color="#09C6F9"/>
<stop offset="1" stop-color="#045DE9"/>
</linearGradient>
<linearGradient id="paint2_linear_1_362" x1="-2.5524e-05" y1="-0.221994" x2="29.245" y2="57.311" gradientUnits="userSpaceOnUse">
<stop stop-color="#09C6F9"/>
<stop offset="1" stop-color="#045DE9"/>
</linearGradient>
<linearGradient id="paint3_linear_1_362" x1="-2.61389e-05" y1="-0.222024" x2="29.245" y2="57.311" gradientUnits="userSpaceOnUse">
<stop stop-color="#09C6F9"/>
<stop offset="1" stop-color="#045DE9"/>
</linearGradient>
</defs>
</svg>
