<svg width="32" height="32" viewBox="0 0 32 32" fill="none" xmlns="http://www.w3.org/2000/svg">
<path d="M16 32C24.8366 32 32 24.8366 32 16C32 7.16344 24.8366 0 16 0C7.16344 0 0 7.16344 0 16C0 24.8366 7.16344 32 16 32Z" fill="url(#paint0_linear_1_359)"/>
<path d="M9.81601 20V11.6H11.352V20H9.81601ZM16.652 20.144C15.86 20.144 15.168 19.964 14.576 19.604C13.984 19.244 13.524 18.744 13.196 18.104C12.868 17.456 12.704 16.704 12.704 15.848C12.704 14.984 12.872 14.224 13.208 13.568C13.552 12.904 14.036 12.388 14.66 12.02C15.292 11.644 16.04 11.456 16.904 11.456C17.888 11.456 18.704 11.692 19.352 12.164C20 12.636 20.42 13.288 20.612 14.12H18.896C18.768 13.728 18.536 13.424 18.2 13.208C17.864 12.984 17.432 12.872 16.904 12.872C16.064 12.872 15.416 13.14 14.96 13.676C14.504 14.204 14.276 14.932 14.276 15.86C14.276 16.788 14.5 17.508 14.948 18.02C15.404 18.524 16.02 18.776 16.796 18.776C17.556 18.776 18.128 18.572 18.512 18.164C18.904 17.748 19.14 17.204 19.22 16.532H17.096V15.38H20.768V20H19.352L19.232 18.896C18.96 19.296 18.62 19.604 18.212 19.82C17.804 20.036 17.284 20.144 16.652 20.144Z" fill="white"/>
<defs>
<linearGradient id="paint0_linear_1_359" x1="1.92997e-07" y1="-0.148" x2="19.497" y2="38.207" gradientUnits="userSpaceOnUse">
<stop stop-color="#09C6F9"/>
<stop offset="1" stop-color="#045DE9"/>
</linearGradient>
</defs>
</svg>
